<?xml version="1.0" encoding="utf-8"?>
<!-- Generator: Adobe Illustrator 23.0.1, SVG Export Plug-In . SVG Version: 6.00 Build 0)  -->
<svg version="1.1" id="Layer_1" xmlns="http://www.w3.org/2000/svg" xmlns:xlink="http://www.w3.org/1999/xlink" x="0px" y="0px"
	 viewBox="0 0 141.73 283.46" style="enable-background:new 0 0 141.73 283.46;" xml:space="preserve">
<style type="text/css">
	.st0{stroke:#000000;stroke-miterlimit:10;}
</style>
<path class="st0" d="M48.2,48.95c-3.89,5.72,3.57,8.34,3.57,8.34s16.28,8.92,3.83,18.89c-12,9.62-20.09-0.09-20.09-0.09
	s-12.38-18.55,9.36-29.36c15.23-7.57,36.42-4.51,47.06,0.94c7.49,3.83,19.31,16.24,8.85,31.15c-2.43,3.46-2.55,4.34-16,11.06
	c-11.76,5.88-20.26,7.08-25.36,11.83c-0.51,0.47-1.31,1.64-1.53,2.3c-0.2,0.58-0.1,1.58,0.45,2.43c0.48,0.73,1.31,1.07,1.85,1.15
	c0.57,0.08,1.73,0.07,2.3,0c6.26-0.74,9.66-0.13,24.26,6.89c14.61,7.03,14.3-10.72,14.3-10.72l5.11-0.26c0,0,1.4,35.11-27.06,30.65
	c-15.96-2.5-15.32-13.8-28.34-14.31c-4.31-0.17-13.02,1.79-13.53,10.72l-6.38,0.51c0,0-3.32-14.04,12.76-23.23
	s28.09-19.21,28.09-19.21s19.4-20.71,4.68-38.16c-1.24-1.47-6.16-8.45-20.77-5.11C51.73,46.26,49.65,46.82,48.2,48.95z"/>
<path class="st0" d="M47.6,141.28c-3.89,5.72,3.57,8.34,3.57,8.34s16.28,8.92,3.83,18.89c-12,9.62-20.09-0.09-20.09-0.09
	s-12.38-18.55,9.36-29.36c15.23-7.57,36.42-4.51,47.06,0.94c7.49,3.83,19.31,16.24,8.85,31.15c-2.43,3.46-2.55,4.34-16,11.06
	c-11.76,5.88-20.26,7.08-25.36,11.83c-0.51,0.47-1.31,1.64-1.53,2.3c-0.2,0.58-0.1,1.58,0.45,2.43c0.48,0.73,1.31,1.07,1.85,1.15
	c0.57,0.08,1.73,0.07,2.3,0c6.26-0.74,9.66-0.13,24.26,6.89c14.61,7.03,14.3-10.72,14.3-10.72l5.11-0.26c0,0,1.4,35.11-27.06,30.65
	c-15.96-2.5-15.32-13.8-28.34-14.31c-4.31-0.17-13.02,1.79-13.53,10.72l-6.38,0.51c0,0-3.32-14.04,12.76-23.23
	c16.09-9.19,28.09-19.21,28.09-19.21s19.4-20.71,4.68-38.16c-1.24-1.47-6.16-8.45-20.77-5.11C51.12,138.59,49.05,139.15,47.6,141.28
	z"/>
</svg>
